<svg xmlns="http://www.w3.org/2000/svg" width="24" height="24" fill="none" viewBox="0 0 24 24"><path stroke="#000" stroke-linecap="round" stroke-linejoin="round" d="M12 9.75V13.5"/><path stroke="#000" stroke-linecap="round" stroke-linejoin="round" d="M10.7063 3.74999L2.45625 18C2.32482 18.2276 2.25552 18.4858 2.25528 18.7487C2.25505 19.0115 2.3239 19.2698 2.45492 19.4977C2.58595 19.7256 2.77456 19.915 3.00185 20.0471C3.22915 20.1791 3.48714 20.2491 3.75 20.25H20.25C20.5129 20.2491 20.7709 20.1791 20.9981 20.0471C21.2254 19.915 21.414 19.7256 21.5451 19.4977C21.6761 19.2698 21.745 19.0115 21.7447 18.7487C21.7445 18.4858 21.6752 18.2276 21.5438 18L13.2938 3.74999C13.1633 3.52206 12.975 3.33263 12.7478 3.20088C12.5206 3.06914 12.2626 2.99976 12 2.99976C11.7374 2.99976 11.4794 3.06914 11.2522 3.20088C11.025 3.33263 10.8367 3.52206 10.7063 3.74999V3.74999Z"/><path fill="#000" d="M12 17.75C12.4832 17.75 12.875 17.3582 12.875 16.875C12.875 16.3918 12.4832 16 12 16C11.5168 16 11.125 16.3918 11.125 16.875C11.125 17.3582 11.5168 17.75 12 17.75Z"/></svg>