<svg width="24" height="24" viewBox="0 0 24 24" fill="none" xmlns="http://www.w3.org/2000/svg">
<path d="M21.75 17.25V15.1031C21.75 9.71251 17.4188 5.26876 12.0375 5.25001C10.754 5.24507 9.48208 5.49362 8.29482 5.98139C7.10756 6.46917 6.0283 7.18657 5.11895 8.09243C4.20961 8.99829 3.48807 10.0748 2.99575 11.2602C2.50342 12.4455 2.24999 13.7165 2.25 15V17.25C2.25 17.4489 2.32902 17.6397 2.46967 17.7803C2.61032 17.921 2.80109 18 3 18H21C21.1989 18 21.3897 17.921 21.5303 17.7803C21.671 17.6397 21.75 17.4489 21.75 17.25Z" stroke="black" stroke-linecap="round" stroke-linejoin="round"/>
<path d="M12 5.25V8.25" stroke="black" stroke-linecap="round" stroke-linejoin="round"/>
<path d="M21.4219 12.4781L18.5156 13.2562" stroke="black" stroke-linecap="round" stroke-linejoin="round"/>
<path d="M2.57812 12.4781L5.48438 13.2562" stroke="black" stroke-linecap="round" stroke-linejoin="round"/>
<path d="M14.3062 18L7.89375 9.64688" stroke="black" stroke-linecap="round" stroke-linejoin="round"/>
</svg>
